<svg xmlns="http://www.w3.org/2000/svg" aria-hidden="true" style="width:0;height:0;position:absolute;overflow:hidden"><defs><symbol id="icon-arrow" viewBox="0 0 22 32"><path d="M3.103.726a2.4 2.4 0 0 0 0 3.394L14.983 16 3.103 27.88a2.398 2.398 0 0 0 1.705 4.067 2.393 2.393 0 0 0 1.688-.674l13.577-13.577a2.4 2.4 0 0 0 0-3.394L6.496.725a2.4 2.4 0 0 0-3.394 0z"/></symbol><symbol id="icon-modal-close-btn" viewBox="0 0 32 32"><path d="m17.253 16 7.37-7.37a.89.89 0 0 0-1.256-1.252l.001-.001L16 14.747 8.63 7.369a.893.893 0 0 0-1.262 1.262l-.001-.001L14.745 16l-7.376 7.368a.89.89 0 1 0 1.252 1.256l.001-.001 7.376-7.37 7.37 7.37a.89.89 0 0 0 1.254-1.256l.001.001L17.253 16z"/></symbol><symbol id="facebook" viewBox="0 0 16 32"><path d="M14.143 15.972h-4.034v14.865H3.997V15.972H1.09v-5.224h2.907V7.367c0-2.418 1.142-6.203 6.166-6.203l4.527.019v5.071h-3.285c-.539 0-1.296.271-1.296 1.424v3.075h4.567l-.534 5.219z"/></symbol><symbol id="git" viewBox="0 0 32 32"><path d="M16 0C7.212 0 0 7.212 0 16c0 7.499 5.262 14.312 12.25 16v-5.293c-.692.152-1.33.156-2.034-.052-.946-.279-1.714-.909-2.284-1.869-.364-.613-1.008-1.278-1.68-1.23l-.165-1.868c1.453-.124 2.711.886 3.457 2.14.332.558.713.884 1.203 1.029.473.14.982.072 1.574-.137.149-1.186.692-1.63 1.102-2.255v-.001c-4.167-.622-5.828-2.832-6.488-4.578-.874-2.317-.405-5.212 1.14-7.041.03-.036.084-.129.063-.194-.708-2.139.155-3.909.187-4.097.817.242.95-.243 3.551 1.337l.449.27c.188.112.129.048.317.034A13.544 13.544 0 0 1 16 7.723c1.136.015 2.273.178 3.404.484l.145.015c-.013-.002.04-.009.127-.062 3.248-1.968 3.132-1.324 4.003-1.608.032.188.883 1.987.182 4.099-.095.291 2.816 2.956 1.203 7.235-.659 1.746-2.32 3.957-6.487 4.578v.001c.534.814 1.176 1.247 1.173 2.927V32C26.738 30.312 32 23.499 32 16c0-8.788-7.212-16-16-16z"/></symbol><symbol id="telegram" viewBox="0 0 44 32"><path d="m17.346 21.048-.675 8.86c.966 0 1.384-.387 1.885-.852l4.527-4.038 9.381 6.412c1.72.895 2.933.424 3.397-1.477l6.158-26.929.002-.002c.546-2.374-.92-3.302-2.596-2.72L3.231 13.235c-2.47.895-2.433 2.18-.42 2.762l9.253 2.686L33.558 6.131c1.011-.625 1.931-.279 1.175.346l-17.386 14.57z"/></symbol><symbol id="arrow" viewBox="0 0 82 32"><path d="M81.414 17.414c.362-.362.586-.862.586-1.414s-.224-1.052-.586-1.414L68.686 1.858a2 2 0 1 0-2.829 2.827l.001.001L77.172 16 65.858 27.314a2 2 0 0 0 2.829 2.827l-.001.001 12.728-12.728zM0 18h80v-4H0v4z"/></symbol><symbol id="icon-tab-product41" viewBox="0 0 29 32"><path fill="none" stroke="#9cbe8f" style="stroke:var(--color1,#9cbe8f)" stroke-width=".615" d="M14.308 4.615A9.692 9.692 0 0 1 24 14.307v7.692c0 5.353-4.339 9.692-9.692 9.692s-9.692-4.339-9.692-9.692v-7.692a9.692 9.692 0 0 1 9.692-9.692z"/><path fill="#9cbe8f" style="fill:var(--color1,#9cbe8f)" d="M22.462 12.462a8.154 8.154 0 1 1-16.309 0 8.154 8.154 0 0 1 16.309 0z"/><path fill="#131313" style="fill:var(--color2,#131313)" d="M9.068 12.903v-.258l1.322-1.691h.399l-1.311 1.691-.188-.059h2.064v.318H9.068zm1.437.635v-.635l.011-.318v-.561h.347v1.514h-.358zm2.126.03h-.014a.976.976 0 0 1-.533-.158l.004.002a1.075 1.075 0 0 1-.377-.45 1.7 1.7 0 0 1-.137-.716c0-.28.046-.519.137-.716.094-.197.219-.347.377-.45a.97.97 0 0 1 .529-.155h.015-.001a.976.976 0 0 1 .916.605c.091.197.137.436.137.716s-.046.519-.137.716a1.034 1.034 0 0 1-.377.45.965.965 0 0 1-.527.155h-.013.001zm0-.329a.58.58 0 0 0 .354-.111.712.712 0 0 0 .24-.332c.059-.148.089-.331.089-.55s-.03-.402-.089-.55a.706.706 0 0 0-.24-.332.582.582 0 0 0-.342-.111h-.013.001c-.135 0-.255.037-.358.111s-.185.185-.244.332c-.057.148-.085.331-.085.55s.028.402.085.55c.059.148.14.258.244.332s.223.111.358.111zm1.382.846.185-.746.048.214h-.007a.257.257 0 0 1-.174-.067.237.237 0 0 1-.07-.181c0-.074.023-.134.07-.181a.25.25 0 0 1 .173-.07h.004c.071 0 .129.025.174.074a.249.249 0 0 1 .067.169v.009a.37.37 0 0 1-.007.074 1.067 1.067 0 0 1-.057.198l.002-.006-.174.513h-.233zm.749-1.182v-.258l1.322-1.691h.399l-1.311 1.691-.188-.059h2.064v.318h-2.286zm1.436.635v-.635l.011-.318v-.561h.347v1.514h-.358zm2.133.739h-.003a1.78 1.78 0 0 1-.534-.081l.013.003a1.07 1.07 0 0 1-.41-.214l.17-.273c.091.079.203.14.336.185.133.047.272.07.417.07.231 0 .401-.054.51-.162s.162-.273.162-.495v-.414l.037-.388-.018-.391v-.535h.336v1.691c0 .345-.086.598-.258.761s-.425.244-.757.244zm-.045-.82a1.08 1.08 0 0 1-.51-.118.953.953 0 0 1-.352-.332l-.002-.004a.942.942 0 0 1-.129-.495.93.93 0 0 1 .129-.495.924.924 0 0 1 .35-.33l.005-.002c.15-.079.32-.118.51-.118.167 0 .32.034.458.103.138.066.247.17.329.31.084.14.126.318.126.532 0 .212-.042.388-.126.528a.805.805 0 0 1-.329.318.998.998 0 0 1-.445.103h-.013.001zm.041-.31c.13 0 .246-.027.347-.081a.622.622 0 0 0 .325-.546v-.012.001a.62.62 0 0 0-.089-.332.573.573 0 0 0-.233-.22l-.003-.002a.716.716 0 0 0-.333-.081h-.015.001-.012c-.123 0-.24.03-.343.083l.004-.002a.602.602 0 0 0-.239.219l-.001.003a.64.64 0 0 0-.085.319v.014-.001c0 .126.028.236.085.332a.619.619 0 0 0 .24.225.736.736 0 0 0 .338.081h.013-.001zM10.57 26.791h-.015a1.46 1.46 0 0 1-.534-.1l.01.003a1.285 1.285 0 0 1-.709-.686L9.319 26a1.332 1.332 0 0 1-.1-.51v-.015.001c0-.19.033-.364.1-.524.069-.16.164-.299.284-.417a1.407 1.407 0 0 1 .957-.373h.015-.001c.187 0 .363.032.528.096.165.062.304.155.417.281l-.174.174a.934.934 0 0 0-.344-.23l-.006-.002a1.117 1.117 0 0 0-.404-.074h-.01.001c-.155 0-.299.027-.432.081a1.066 1.066 0 0 0-.58.565 1.068 1.068 0 0 0-.081.411v.014-.001c0 .155.027.298.081.428a1.06 1.06 0 0 0 .58.565c.133.052.277.078.432.078.148 0 .286-.025.414-.074s.245-.128.351-.236l.174.174c-.113.126-.252.22-.417.284a1.424 1.424 0 0 1-.52.096h-.012.001zm2.662-.022v-.428l-.011-.07v-.716c0-.165-.047-.292-.14-.38-.091-.089-.228-.133-.41-.133h-.005c-.127 0-.248.023-.36.065l.007-.002a.919.919 0 0 0-.288.166l-.118-.196c.098-.084.217-.148.354-.192.138-.047.283-.07.436-.07.251 0 .444.063.58.188.138.123.207.311.207.565v1.204h-.251zm-.668.019a.948.948 0 0 1-.38-.07.582.582 0 0 1-.242-.198l-.001-.002a.523.523 0 0 1-.085-.295c0-.101.023-.192.07-.273a.501.501 0 0 1 .236-.199c.111-.052.258-.078.443-.078h.668v.196h-.661c-.187 0-.318.033-.391.1a.323.323 0 0 0-.107.241v.007c0 .111.043.199.129.266s.207.1.362.1a.695.695 0 0 0 .38-.1.589.589 0 0 0 .236-.295l.059.181a.61.61 0 0 1-.258.306.845.845 0 0 1-.458.114zm1.631-.019v-1.938h.251v.528l-.026-.092a.627.627 0 0 1 .273-.336.891.891 0 0 1 .476-.118v.255h-.03a.136.136 0 0 0-.03-.004c-.204 0-.364.063-.48.188-.116.123-.174.299-.174.528v.99h-.262zm2.454.019h-.014a.904.904 0 0 1-.448-.117l.005.002a.848.848 0 0 1-.319-.335l-.002-.005a1.121 1.121 0 0 1-.118-.535c0-.212.039-.39.118-.535.081-.148.19-.26.325-.336s.287-.114.454-.114a.97.97 0 0 1 .495.126c.148.081.263.196.347.343s.126.32.126.517c0 .194-.042.367-.126.517a.904.904 0 0 1-.347.347.962.962 0 0 1-.478.126h-.017.001zm-1-.019v-2.74h.262v1.374l-.037.391.026.391v.583h-.251zm.982-.214a.737.737 0 0 0 .369-.092.709.709 0 0 0 .258-.266.812.812 0 0 0 .096-.399.796.796 0 0 0-.096-.399.685.685 0 0 0-.255-.26L17 25.137a.708.708 0 0 0-.357-.096h-.013.001a.732.732 0 0 0-.373.096.684.684 0 0 0-.258.262.817.817 0 0 0-.092.399c0 .15.031.283.092.399.064.113.15.202.258.266a.75.75 0 0 0 .373.092zm2.041.233c-.16 0-.311-.022-.454-.066a.995.995 0 0 1-.336-.174l.118-.207a1.19 1.19 0 0 0 .691.218c.185 0 .318-.028.399-.085a.275.275 0 0 0 .122-.228v-.005a.204.204 0 0 0-.07-.166.401.401 0 0 0-.174-.092l-.003-.001a1.8 1.8 0 0 0-.236-.054l-.011-.002a5.38 5.38 0 0 1-.309-.058l.035.007a1.011 1.011 0 0 1-.25-.088l.006.003a.505.505 0 0 1-.181-.159.474.474 0 0 1-.066-.266c0-.106.03-.201.089-.284s.145-.149.258-.196c.116-.049.256-.074.421-.074.126 0 .251.017.377.052.126.032.229.075.31.129l-.114.21a.838.838 0 0 0-.271-.124l-.006-.001a1.095 1.095 0 0 0-.295-.041c-.175 0-.304.031-.388.092a.272.272 0 0 0-.122.229.23.23 0 0 0 .066.174.514.514 0 0 0 .181.1c.076.022.159.041.247.055.091.015.181.033.27.055.091.02.174.048.247.085a.42.42 0 0 1 .251.406.47.47 0 0 1-.096.295.616.616 0 0 1-.273.192 1.242 1.242 0 0 1-.432.066z"/></symbol><symbol id="icon-tab-product3" viewBox="0 0 29 32"><path fill="none" stroke="#9cbe8f" style="stroke:var(--color1,#9cbe8f)" stroke-width=".621" d="M14.447 4.349c5.405 0 9.786 4.382 9.786 9.786v7.767c0 5.405-4.382 9.786-9.786 9.786s-9.786-4.382-9.786-9.786v-7.767c0-5.405 4.382-9.786 9.786-9.786z"/><path fill="#9cbe8f" style="fill:var(--color1,#9cbe8f)" d="M22.68 12.583a8.233 8.233 0 1 1-16.466 0 8.233 8.233 0 0 1 16.466 0z"/><path fill="#131313" style="fill:var(--color2,#131313)" d="M11.491 13.7c-.211 0-.394-.031-.548-.093s-.273-.15-.358-.265a.678.678 0 0 1-.127-.396v-.015.001c0-.154.04-.285.119-.391a.74.74 0 0 1 .354-.246c.154-.057.341-.086.559-.086s.405.029.559.086c.157.055.276.137.358.246s.123.24.123.391a.677.677 0 0 1-.127.41c-.085.114-.205.203-.362.265s-.341.093-.552.093zm0-.302c.209 0 .372-.042.488-.127a.413.413 0 0 0 .179-.35.39.39 0 0 0-.179-.339c-.117-.085-.28-.127-.488-.127-.206 0-.368.042-.485.127a.393.393 0 0 0-.175.327v.013-.001c0 .147.058.263.175.35.117.085.278.127.485.127zm0-.988c-.199 0-.368-.026-.507-.078a.725.725 0 0 1-.321-.231.59.59 0 0 1-.112-.348v-.015.001c0-.147.039-.272.116-.377.08-.107.19-.189.332-.246s.306-.086.492-.086c.189 0 .354.029.496.086s.252.139.332.246a.6.6 0 0 1 .119.377c0 .139-.037.26-.112.362a.724.724 0 0 1-.324.231 1.488 1.488 0 0 1-.511.078zm0-.239c.181 0 .323-.037.425-.112a.357.357 0 0 0 .157-.306c0-.132-.053-.235-.16-.309s-.247-.112-.421-.112-.313.037-.418.112a.363.363 0 0 0-.153.309c0 .129.05.231.149.306.102.075.242.112.421.112zm1.436 2.051.186-.753.048.216h-.007a.262.262 0 0 1-.176-.067.242.242 0 0 1-.071-.183.25.25 0 0 1 .071-.183.25.25 0 0 1 .175-.071h.005c.072 0 .13.025.175.075a.247.247 0 0 1 .067.171v.009a.38.38 0 0 1-.007.075.902.902 0 0 1-.059.2l.002-.006-.175.518h-.235zm.821-.552v-.254l1.063-1.025c.094-.089.164-.168.209-.235a.629.629 0 0 0 .119-.361c0-.134-.047-.24-.142-.317s-.232-.116-.414-.116a.967.967 0 0 0-.377.071.737.737 0 0 0-.291.213l-.254-.22a.934.934 0 0 1 .399-.291c.16-.066.345-.104.539-.104h.017-.001c.181 0 .339.03.473.089a.671.671 0 0 1 .421.638.877.877 0 0 1-.163.514l.002-.003c-.082.115-.17.217-.268.309l-.001.001-.947.913-.089-.145h1.577v.324h-1.875zm3.171.746h-.003c-.188 0-.369-.029-.539-.082l.013.003a1.083 1.083 0 0 1-.414-.216l.171-.276c.092.08.205.142.339.186.134.047.275.071.421.071.234 0 .405-.055.514-.164s.164-.276.164-.5v-.418l.037-.391-.019-.395v-.541h.339V13.4c0 .348-.087.604-.261.768s-.429.246-.764.246zm-.045-.828c-.191 0-.363-.04-.515-.119a.98.98 0 0 1-.356-.335l-.002-.004a.948.948 0 0 1-.13-.5c0-.191.043-.358.13-.5a.932.932 0 0 1 .353-.333l.005-.002c.152-.08.323-.119.515-.119.169 0 .323.035.462.104.139.067.25.171.332.313.084.142.127.321.127.537 0 .214-.042.391-.127.533a.807.807 0 0 1-.332.321 1.003 1.003 0 0 1-.449.104h-.014.001zm.041-.313a.721.721 0 0 0 .35-.082.628.628 0 0 0 .328-.551v-.012.001a.634.634 0 0 0-.089-.336.577.577 0 0 0-.235-.222l-.003-.002a.717.717 0 0 0-.336-.082h-.015.001-.012a.746.746 0 0 0-.346.084l.004-.002a.612.612 0 0 0-.241.221l-.002.003a.642.642 0 0 0-.086.322v.014-.001c0 .127.029.239.086.336.06.097.14.173.242.227a.738.738 0 0 0 .342.082h.013-.001zm-5.548 12.098h1.379v.239h-1.379v-.239zm.029 1.345h-.276v-2.61h1.79v.239h-1.514v2.371zm3.174 0v-.432l-.011-.071v-.723c0-.167-.047-.295-.142-.384-.092-.089-.23-.134-.414-.134h-.005c-.128 0-.251.023-.364.066l.007-.002a.92.92 0 0 0-.291.168l-.119-.198c.099-.084.219-.149.358-.194.139-.047.286-.071.44-.071.254 0 .449.063.585.19.139.124.209.314.209.57v1.215h-.254zm-.675.019a.964.964 0 0 1-.384-.071.6.6 0 0 1-.245-.199l-.001-.002a.531.531 0 0 1-.086-.298c0-.102.024-.194.071-.276a.508.508 0 0 1 .239-.201c.112-.052.261-.078.447-.078h.675v.198h-.667c-.189 0-.321.034-.395.101a.325.325 0 0 0-.108.243v.007c0 .112.043.201.13.268s.209.101.365.101a.71.71 0 0 0 .384-.101.602.602 0 0 0 .239-.298l.06.183a.622.622 0 0 1-.261.309.851.851 0 0 1-.462.116zm2.267 0c-.184 0-.326-.05-.425-.149s-.149-.24-.149-.421v-1.838h.265v1.823c0 .114.029.203.086.265.06.062.144.093.254.093a.428.428 0 0 0 .291-.101l.093.19a.49.49 0 0 1-.187.104l-.003.001a.743.743 0 0 1-.222.034h-.002zm-.925-1.756v-.22h1.212v.22h-1.212zm2.346 1.756c-.162 0-.314-.022-.458-.067a1.012 1.012 0 0 1-.339-.175l.119-.209a1.164 1.164 0 0 0 .697.22c.186 0 .321-.029.403-.086a.276.276 0 0 0 .123-.231v-.005a.209.209 0 0 0-.071-.168.404.404 0 0 0-.176-.093l-.003-.001a1.683 1.683 0 0 0-.238-.054l-.011-.002a4.698 4.698 0 0 1-.312-.059l.036.007a1.028 1.028 0 0 1-.252-.089l.006.003a.524.524 0 0 1-.183-.16.475.475 0 0 1-.067-.268c0-.107.03-.203.089-.287s.147-.15.261-.198a1.08 1.08 0 0 1 .425-.075c.127 0 .253.017.38.052a.997.997 0 0 1 .313.131l-.116.212a.826.826 0 0 0-.274-.125l-.006-.001a1.078 1.078 0 0 0-.298-.041c-.176 0-.307.031-.391.093a.275.275 0 0 0-.123.231c0 .075.022.133.067.175a.516.516 0 0 0 .183.101c.077.022.16.041.25.056.092.015.183.034.272.056.092.02.175.048.25.086a.428.428 0 0 1 .254.41.474.474 0 0 1-.097.298.61.61 0 0 1-.276.194 1.241 1.241 0 0 1-.436.067z"/></symbol><symbol id="icon-tab-product2" viewBox="0 0 29 32"><path fill="none" stroke="#9cbe8f" style="stroke:var(--color1,#9cbe8f)" stroke-width=".621" d="M14.447 4.349c5.405 0 9.786 4.382 9.786 9.786v7.767c0 5.405-4.382 9.786-9.786 9.786s-9.786-4.382-9.786-9.786v-7.767c0-5.405 4.382-9.786 9.786-9.786z"/><path fill="#9cbe8f" style="fill:var(--color1,#9cbe8f)" d="M22.68 12.583a8.233 8.233 0 1 1-16.466 0 8.233 8.233 0 0 1 16.466 0z"/><path fill="#131313" style="fill:var(--color2,#131313)" d="M12.031 13.029v-.261l1.335-1.707h.403l-1.323 1.707-.19-.06h2.084v.321h-2.308zm1.45.641v-.641l.011-.321v-.567h.35v1.529h-.362zm2.153.746h-.003c-.188 0-.369-.029-.539-.082l.013.003a1.083 1.083 0 0 1-.414-.216l.171-.276c.092.08.205.142.339.186.134.047.275.071.421.071.234 0 .405-.055.514-.164s.164-.276.164-.5v-.418l.037-.391-.019-.395v-.541h.339V13.4c0 .348-.087.604-.261.768s-.429.246-.764.246zm-.044-.828c-.191 0-.363-.04-.514-.119a.98.98 0 0 1-.356-.335l-.002-.004a.948.948 0 0 1-.13-.5c0-.191.043-.358.13-.5a.932.932 0 0 1 .353-.333l.005-.002c.152-.08.323-.119.514-.119.169 0 .323.035.462.104.139.067.25.171.332.313.084.142.127.321.127.537 0 .214-.042.391-.127.533a.807.807 0 0 1-.332.321 1.003 1.003 0 0 1-.449.104h-.014.001zm.041-.313a.721.721 0 0 0 .35-.082.628.628 0 0 0 .328-.551v-.012.001a.634.634 0 0 0-.089-.336.577.577 0 0 0-.235-.222l-.003-.002a.717.717 0 0 0-.336-.082h-.015.001-.012a.746.746 0 0 0-.346.084l.004-.002a.612.612 0 0 0-.241.221l-.002.003a.642.642 0 0 0-.086.322v.014-.001c0 .127.029.239.086.336.06.097.14.173.242.227a.738.738 0 0 0 .342.082h.013-.001zM7.045 26.718v-2.61h.977c.221 0 .411.036.57.108.159.07.281.172.365.306.087.132.13.292.13.481a.856.856 0 0 1-.13.477c-.085.132-.206.234-.365.306s-.349.108-.57.108h-.824l.123-.131v.954h-.276zm.276-.932-.123-.134h.816c.261 0 .459-.056.593-.168.137-.114.205-.275.205-.481 0-.209-.068-.37-.205-.485-.134-.114-.332-.172-.593-.172h-.816l.123-.131v1.57zm2.26.932v-1.957h.254v.533l-.026-.093a.639.639 0 0 1 .276-.339.898.898 0 0 1 .481-.119V25h-.03a.136.136 0 0 0-.03-.004c-.206 0-.368.063-.485.19-.117.124-.175.302-.175.533v.999h-.265zm2.247.019h-.016c-.182 0-.352-.047-.501-.13l.005.003a.97.97 0 0 1-.484-.872c0-.196.043-.369.13-.518s.205-.266.354-.35c.149-.084.32-.127.511-.127.194 0 .365.042.514.127a.903.903 0 0 1 .354.35c.087.149.13.322.13.518 0 .194-.043.367-.13.518a.939.939 0 0 1-.35.352l-.005.002c-.144.08-.315.127-.497.127h-.018.001zm0-.235a.753.753 0 0 0 .377-.093.69.69 0 0 0 .257-.268.815.815 0 0 0 .097-.403.815.815 0 0 0-.097-.403.663.663 0 0 0-.254-.263l-.003-.002a.71.71 0 0 0-.361-.097h-.013.001a.718.718 0 0 0-.634.362.804.804 0 0 0-.097.403c0 .152.033.286.097.403a.715.715 0 0 0 .261.268.733.733 0 0 0 .369.093zm2.158.235c-.184 0-.326-.05-.425-.149s-.149-.24-.149-.421v-1.838h.265v1.823c0 .114.029.203.086.265.06.062.144.093.254.093a.428.428 0 0 0 .291-.101l.093.19a.49.49 0 0 1-.187.104l-.003.001a.743.743 0 0 1-.222.034h-.002zm-.924-1.756v-.22h1.212v.22h-1.212zm2.582 1.756c-.204 0-.383-.042-.537-.127a.958.958 0 0 1-.359-.35l-.002-.004c-.087-.152-.13-.324-.13-.518s.041-.365.123-.515a.936.936 0 0 1 .339-.348l.004-.002a.948.948 0 0 1 .492-.131.927.927 0 0 1 .825.473l.002.005a1.058 1.058 0 0 1 .119.559v.041h-1.704v-.198h1.562l-.104.078a.753.753 0 0 0-.093-.377.653.653 0 0 0-.243-.259l-.003-.002a.694.694 0 0 0-.362-.093c-.134 0-.255.031-.362.093s-.19.149-.25.261a.8.8 0 0 0-.089.384v.041c0 .149.032.281.097.395.067.112.159.2.276.265a.868.868 0 0 0 .406.093c.119 0 .23-.021.332-.063a.685.685 0 0 0 .268-.194l.149.172a.843.843 0 0 1-.328.239 1.07 1.07 0 0 1-.415.082h-.015.001zm1.419-.019v-1.957h.265v1.957h-.265zm.134-2.389h-.004a.187.187 0 0 1-.134-.056.18.18 0 0 1-.056-.132v-.007a.17.17 0 0 1 .056-.126c.037-.037.083-.056.138-.056s.101.017.138.052a.17.17 0 0 1 .056.126v.004a.188.188 0 0 1-.056.138.178.178 0 0 1-.131.056h-.008zm1.866.414c.159 0 .298.031.418.093.122.06.216.152.283.276.07.124.104.281.104.47v1.137h-.264v-1.111c0-.206-.052-.362-.157-.466-.102-.107-.246-.16-.432-.16a.749.749 0 0 0-.365.086.586.586 0 0 0-.237.239l-.002.003a.805.805 0 0 0-.082.38v1.029h-.265v-1.957h.253v.537l-.041-.101a.706.706 0 0 1 .298-.332.93.93 0 0 1 .488-.123zm1.546 1.994h-.002a.194.194 0 0 1-.14-.06.203.203 0 0 1-.056-.141v-.005c0-.06.019-.108.056-.145.04-.037.087-.056.142-.056s.1.019.138.056a.192.192 0 0 1 .059.145c0 .057-.02.106-.059.145a.18.18 0 0 1-.135.06h-.004zm.79 0h-.002a.194.194 0 0 1-.14-.06.203.203 0 0 1-.056-.141v-.005c0-.06.019-.108.056-.145.04-.037.087-.056.142-.056s.101.019.138.056a.19.19 0 0 1 .06.145c0 .057-.02.106-.06.145a.18.18 0 0 1-.135.06h-.004zm.79 0h-.002a.194.194 0 0 1-.14-.06.203.203 0 0 1-.056-.141v-.005c0-.06.019-.108.056-.145.04-.037.087-.056.142-.056s.101.019.138.056a.19.19 0 0 1 .06.145c0 .057-.02.106-.06.145a.18.18 0 0 1-.135.06h-.004z"/></symbol><symbol id="icon-tab-product4" viewBox="0 0 29 32"><path fill="none" stroke="#9cbe8f" style="stroke:var(--color1,#9cbe8f)" stroke-width=".615" d="M14.308 4.615A9.692 9.692 0 0 1 24 14.307v7.692c0 5.353-4.339 9.692-9.692 9.692s-9.692-4.339-9.692-9.692v-7.692a9.692 9.692 0 0 1 9.692-9.692z"/><path fill="#9cbe8f" style="fill:var(--color1,#9cbe8f)" d="M22.462 12.462a8.154 8.154 0 1 1-16.309 0 8.154 8.154 0 0 1 16.309 0z"/><path fill="#131313" style="fill:var(--color2,#131313)" d="M9.068 12.903v-.258l1.322-1.691h.399l-1.311 1.691-.188-.059h2.064v.318H9.068zm1.437.635v-.635l.011-.318v-.561h.347v1.514h-.358zm2.126.03h-.014a.976.976 0 0 1-.533-.158l.004.002a1.075 1.075 0 0 1-.377-.45 1.7 1.7 0 0 1-.137-.716c0-.28.046-.519.137-.716.094-.197.219-.347.377-.45a.97.97 0 0 1 .529-.155h.015-.001a.976.976 0 0 1 .916.605c.091.197.137.436.137.716s-.046.519-.137.716a1.034 1.034 0 0 1-.377.45.965.965 0 0 1-.527.155h-.013.001zm0-.329a.58.58 0 0 0 .354-.111.712.712 0 0 0 .24-.332c.059-.148.089-.331.089-.55s-.03-.402-.089-.55a.706.706 0 0 0-.24-.332.582.582 0 0 0-.342-.111h-.013.001c-.135 0-.255.037-.358.111s-.185.185-.244.332c-.057.148-.085.331-.085.55s.028.402.085.55c.059.148.14.258.244.332s.223.111.358.111zm1.382.846.185-.746.048.214h-.007a.257.257 0 0 1-.174-.067.237.237 0 0 1-.07-.181c0-.074.023-.134.07-.181a.25.25 0 0 1 .173-.07h.004c.071 0 .129.025.174.074a.249.249 0 0 1 .067.169v.009a.37.37 0 0 1-.007.074 1.067 1.067 0 0 1-.057.198l.002-.006-.174.513h-.233zm.749-1.182v-.258l1.322-1.691h.399l-1.311 1.691-.188-.059h2.064v.318h-2.286zm1.436.635v-.635l.011-.318v-.561h.347v1.514h-.358zm2.133.739h-.003a1.78 1.78 0 0 1-.534-.081l.013.003a1.07 1.07 0 0 1-.41-.214l.17-.273c.091.079.203.14.336.185.133.047.272.07.417.07.231 0 .401-.054.51-.162s.162-.273.162-.495v-.414l.037-.388-.018-.391v-.535h.336v1.691c0 .345-.086.598-.258.761s-.425.244-.757.244zm-.045-.82a1.08 1.08 0 0 1-.51-.118.953.953 0 0 1-.352-.332l-.002-.004a.942.942 0 0 1-.129-.495.93.93 0 0 1 .129-.495.924.924 0 0 1 .35-.33l.005-.002c.15-.079.32-.118.51-.118.167 0 .32.034.458.103.138.066.247.17.329.31.084.14.126.318.126.532 0 .212-.042.388-.126.528a.805.805 0 0 1-.329.318.998.998 0 0 1-.445.103h-.013.001zm.041-.31c.13 0 .246-.027.347-.081a.622.622 0 0 0 .325-.546v-.012.001a.62.62 0 0 0-.089-.332.573.573 0 0 0-.233-.22l-.003-.002a.716.716 0 0 0-.333-.081h-.015.001-.012c-.123 0-.24.03-.343.083l.004-.002a.602.602 0 0 0-.239.219l-.001.003a.64.64 0 0 0-.085.319v.014-.001c0 .126.028.236.085.332a.619.619 0 0 0 .24.225.736.736 0 0 0 .338.081h.013-.001zM10.57 26.791h-.015a1.46 1.46 0 0 1-.534-.1l.01.003a1.285 1.285 0 0 1-.709-.686L9.319 26a1.332 1.332 0 0 1-.1-.51v-.015.001c0-.19.033-.364.1-.524.069-.16.164-.299.284-.417a1.407 1.407 0 0 1 .957-.373h.015-.001c.187 0 .363.032.528.096.165.062.304.155.417.281l-.174.174a.934.934 0 0 0-.344-.23l-.006-.002a1.117 1.117 0 0 0-.404-.074h-.01.001c-.155 0-.299.027-.432.081a1.066 1.066 0 0 0-.58.565 1.068 1.068 0 0 0-.081.411v.014-.001c0 .155.027.298.081.428a1.06 1.06 0 0 0 .58.565c.133.052.277.078.432.078.148 0 .286-.025.414-.074s.245-.128.351-.236l.174.174c-.113.126-.252.22-.417.284a1.424 1.424 0 0 1-.52.096h-.012.001zm2.662-.022v-.428l-.011-.07v-.716c0-.165-.047-.292-.14-.38-.091-.089-.228-.133-.41-.133h-.005c-.127 0-.248.023-.36.065l.007-.002a.919.919 0 0 0-.288.166l-.118-.196c.098-.084.217-.148.354-.192.138-.047.283-.07.436-.07.251 0 .444.063.58.188.138.123.207.311.207.565v1.204h-.251zm-.668.019a.948.948 0 0 1-.38-.07.582.582 0 0 1-.242-.198l-.001-.002a.523.523 0 0 1-.085-.295c0-.101.023-.192.07-.273a.501.501 0 0 1 .236-.199c.111-.052.258-.078.443-.078h.668v.196h-.661c-.187 0-.318.033-.391.1a.323.323 0 0 0-.107.241v.007c0 .111.043.199.129.266s.207.1.362.1a.695.695 0 0 0 .38-.1.589.589 0 0 0 .236-.295l.059.181a.61.61 0 0 1-.258.306.845.845 0 0 1-.458.114zm1.631-.019v-1.938h.251v.528l-.026-.092a.627.627 0 0 1 .273-.336.891.891 0 0 1 .476-.118v.255h-.03a.136.136 0 0 0-.03-.004c-.204 0-.364.063-.48.188-.116.123-.174.299-.174.528v.99h-.262zm2.454.019h-.014a.904.904 0 0 1-.448-.117l.005.002a.848.848 0 0 1-.319-.335l-.002-.005a1.121 1.121 0 0 1-.118-.535c0-.212.039-.39.118-.535.081-.148.19-.26.325-.336s.287-.114.454-.114a.97.97 0 0 1 .495.126c.148.081.263.196.347.343s.126.32.126.517c0 .194-.042.367-.126.517a.904.904 0 0 1-.347.347.962.962 0 0 1-.478.126h-.017.001zm-1-.019v-2.74h.262v1.374l-.037.391.026.391v.583h-.251zm.982-.214a.737.737 0 0 0 .369-.092.709.709 0 0 0 .258-.266.812.812 0 0 0 .096-.399.796.796 0 0 0-.096-.399.685.685 0 0 0-.255-.26L17 25.137a.708.708 0 0 0-.357-.096h-.013.001a.732.732 0 0 0-.373.096.684.684 0 0 0-.258.262.817.817 0 0 0-.092.399c0 .15.031.283.092.399.064.113.15.202.258.266a.75.75 0 0 0 .373.092zm2.041.233c-.16 0-.311-.022-.454-.066a.995.995 0 0 1-.336-.174l.118-.207a1.19 1.19 0 0 0 .691.218c.185 0 .318-.028.399-.085a.275.275 0 0 0 .122-.228v-.005a.204.204 0 0 0-.07-.166.401.401 0 0 0-.174-.092l-.003-.001a1.8 1.8 0 0 0-.236-.054l-.011-.002a5.38 5.38 0 0 1-.309-.058l.035.007a1.011 1.011 0 0 1-.25-.088l.006.003a.505.505 0 0 1-.181-.159.474.474 0 0 1-.066-.266c0-.106.03-.201.089-.284s.145-.149.258-.196c.116-.049.256-.074.421-.074.126 0 .251.017.377.052.126.032.229.075.31.129l-.114.21a.838.838 0 0 0-.271-.124l-.006-.001a1.095 1.095 0 0 0-.295-.041c-.175 0-.304.031-.388.092a.272.272 0 0 0-.122.229.23.23 0 0 0 .066.174.514.514 0 0 0 .181.1c.076.022.159.041.247.055.091.015.181.033.27.055.091.02.174.048.247.085a.42.42 0 0 1 .251.406.47.47 0 0 1-.096.295.616.616 0 0 1-.273.192 1.242 1.242 0 0 1-.432.066z"/></symbol></defs></svg>